HIERARCHY
ROOT Hips
{
	OFFSET 0.000000 35.082581 0.000000
	CHANNELS 6 Xposition Yposition Zposition Xrotation Yrotation Zrotation 
	JOINT Spine
	{
		OFFSET 0.000000 6.876099 0.125700
		CHANNELS 3 Xrotation Yrotation Zrotation
		JOINT Spine1
		{
			OFFSET 0.000000 5.730043 0.104720
			CHANNELS 3 Xrotation Yrotation Zrotation
			JOINT Spine1_split
			{
				OFFSET 0.000000 5.730043 0.104720
				CHANNELS 3 Xrotation Yrotation Zrotation
				JOINT Spine2
				{
					OFFSET 0.000000 5.730043 0.104720
					CHANNELS 3 Xrotation Yrotation Zrotation
					JOINT Neck
					{
						OFFSET 0.000000 10.314075 0.188496
						CHANNELS 3 Xrotation Yrotation Zrotation
						JOINT Head
						{
							OFFSET 0.000000 7.643700 -2.377400
							CHANNELS 3 Xrotation Yrotation Zrotation
							JOINT HeadTop_End
							{
								OFFSET 0.000000 43.788605 -13.619600
								CHANNELS 3 Xrotation Yrotation Zrotation
								End Site
								{
									OFFSET 0.000000 0.000000 0.000000
								}
							}
						}
					}
					JOINT LeftShoulder
					{
						OFFSET 2.196100 4.412489 0.087492
						CHANNELS 3 Xrotation Yrotation Zrotation
						JOINT LeftShoulder_split
						{
							OFFSET 2.196100 4.412489 0.087492
							CHANNELS 3 Xrotation Yrotation Zrotation
							JOINT LeftArm
							{
								OFFSET 8.771219 -2.981674 -0.026999
								CHANNELS 3 Xrotation Yrotation Zrotation
								JOINT LeftForeArm
								{
									OFFSET 8.512804 0.000000 -0.000000
									CHANNELS 3 Xrotation Yrotation Zrotation
									JOINT LeftHand
									{
										OFFSET 18.484802 0.000000 -0.000000
										CHANNELS 3 Xrotation Yrotation Zrotation
										JOINT LeftHandThumb1
										{
											OFFSET 2.499420 -1.158070 2.653252
											CHANNELS 3 Xrotation Yrotation Zrotation
											JOINT LeftHandThumb2
											{
												OFFSET 2.370079 -1.368366 1.368366
												CHANNELS 3 Xrotation Yrotation Zrotation
												JOINT LeftHandThumb3
												{
													OFFSET 2.676727 -1.545410 1.545409
													CHANNELS 3 Xrotation Yrotation Zrotation
													JOINT LeftHandThumb4
													{
														OFFSET 1.692226 -0.977005 0.977007
														CHANNELS 3 Xrotation Yrotation Zrotation
														End Site
														{
															OFFSET 0.000000 0.000000 0.000000
														}
													}
												}
											}
										}
										JOINT LeftHandIndex1
										{
											OFFSET 7.924831 -0.457527 2.345128
											CHANNELS 3 Xrotation Yrotation Zrotation
											JOINT LeftHandIndex2
											{
												OFFSET 3.643303 0.000000 0.000000
												CHANNELS 3 Xrotation Yrotation Zrotation
												JOINT LeftHandIndex3
												{
													OFFSET 3.810799 0.000000 0.000000
													CHANNELS 3 Xrotation Yrotation Zrotation
													JOINT LeftHandIndex4
													{
														OFFSET 2.403702 0.000000 0.000000
														CHANNELS 3 Xrotation Yrotation Zrotation
														End Site
														{
															OFFSET 0.000000 0.000000 0.000000
														}
													}
												}
											}
										}
										JOINT LeftHandMiddle1
										{
											OFFSET 8.563995 0.000000 -0.000000
											CHANNELS 3 Xrotation Yrotation Zrotation
											JOINT LeftHandMiddle2
											{
												OFFSET 3.861618 0.000000 0.000000
												CHANNELS 3 Xrotation Yrotation Zrotation
												JOINT LeftHandMiddle3
												{
													OFFSET 3.701603 0.000000 0.000000
													CHANNELS 3 Xrotation Yrotation Zrotation
													JOINT LeftHandMiddle4
													{
														OFFSET 2.322544 0.000000 0.000000
														CHANNELS 3 Xrotation Yrotation Zrotation
														End Site
														{
															OFFSET 0.000000 0.000000 0.000000
														}
													}
												}
											}
										}
										JOINT LeftHandRing1
										{
											OFFSET 8.426460 -0.424637 -3.286992
											CHANNELS 3 Xrotation Yrotation Zrotation
											JOINT LeftHandRing2
											{
												OFFSET 3.126408 0.000000 0.000000
												CHANNELS 3 Xrotation Yrotation Zrotation
												JOINT LeftHandRing3
												{
													OFFSET 3.085026 0.000000 0.000000
													CHANNELS 3 Xrotation Yrotation Zrotation
													JOINT LeftHandRing4
													{
														OFFSET 1.644005 0.000000 0.000000
														CHANNELS 3 Xrotation Yrotation Zrotation
														End Site
														{
															OFFSET 0.000000 0.000000 0.000000
														}
													}
												}
											}
										}
									}
								}
							}
						}
					}
					JOINT RightShoulder
					{
						OFFSET -2.196100 4.412496 0.070690
						CHANNELS 3 Xrotation Yrotation Zrotation
						JOINT RightShoulder_split
						{
							OFFSET -2.196100 4.412496 0.070690
							CHANNELS 3 Xrotation Yrotation Zrotation
							JOINT RightArm
							{
								OFFSET -8.771282 -2.981682 -0.094208
								CHANNELS 3 Xrotation Yrotation Zrotation
								JOINT RightForeArm
								{
									OFFSET -8.494598 0.000000 0.000000
									CHANNELS 3 Xrotation Yrotation Zrotation
									JOINT RightHand
									{
										OFFSET -18.483803 0.000000 0.000001
										CHANNELS 3 Xrotation Yrotation Zrotation
										JOINT RightHandThumb1
										{
											OFFSET -2.527351 -1.008072 2.575253
											CHANNELS 3 Xrotation Yrotation Zrotation
											JOINT RightHandThumb2
											{
												OFFSET -2.321518 -1.340328 1.340329
												CHANNELS 3 Xrotation Yrotation Zrotation
												JOINT RightHandThumb3
												{
													OFFSET -2.657753 -1.534454 1.534455
													CHANNELS 3 Xrotation Yrotation Zrotation
													JOINT RightHandThumb4
													{
														OFFSET -1.807510 -1.043568 1.043567
														CHANNELS 3 Xrotation Yrotation Zrotation
														End Site
														{
															OFFSET 0.000000 0.000000 0.000000
														}
													}
												}
											}
										}
										JOINT RightHandIndex1
										{
											OFFSET -8.811420 0.015533 2.887987
											CHANNELS 3 Xrotation Yrotation Zrotation
											JOINT RightHandIndex2
											{
												OFFSET -3.537502 0.000000 0.000000
												CHANNELS 3 Xrotation Yrotation Zrotation
												JOINT RightHandIndex3
												{
													OFFSET -3.356201 0.000000 0.000000
													CHANNELS 3 Xrotation Yrotation Zrotation
													JOINT RightHandIndex4
													{
														OFFSET -1.933098 0.000000 0.000000
														CHANNELS 3 Xrotation Yrotation Zrotation
														End Site
														{
															OFFSET 0.000000 0.000000 0.000000
														}
													}
												}
											}
										}
										JOINT RightHandMiddle1
										{
											OFFSET -8.178135 0.000000 0.000000
											CHANNELS 3 Xrotation Yrotation Zrotation
											JOINT RightHandMiddle2
											{
												OFFSET -3.901302 0.000000 0.000000
												CHANNELS 3 Xrotation Yrotation Zrotation
												JOINT RightHandMiddle3
												{
													OFFSET -3.909599 0.000000 0.000000
													CHANNELS 3 Xrotation Yrotation Zrotation
													JOINT RightHandMiddle4
													{
														OFFSET -2.376003 0.000000 0.000000
														CHANNELS 3 Xrotation Yrotation Zrotation
														End Site
														{
															OFFSET 0.000000 0.000000 0.000000
														}
													}
												}
											}
										}
										JOINT RightHandRing1
										{
											OFFSET -7.559013 0.014137 -2.865403
											CHANNELS 3 Xrotation Yrotation Zrotation
											JOINT RightHandRing2
											{
												OFFSET -3.449306 0.000000 0.000000
												CHANNELS 3 Xrotation Yrotation Zrotation
												JOINT RightHandRing3
												{
													OFFSET -3.362106 0.000000 0.000000
													CHANNELS 3 Xrotation Yrotation Zrotation
													JOINT RightHandRing4
													{
														OFFSET -2.076401 0.000000 0.000000
														CHANNELS 3 Xrotation Yrotation Zrotation
														End Site
														{
															OFFSET 0.000000 0.000000 0.000000
														}
													}
												}
											}
										}
									}
								}
							}
						}
					}
				}
			}
		}
	}
	JOINT LeftUpLeg
	{
		OFFSET 10.205400 -3.823500 0.155100
		CHANNELS 3 Xrotation Yrotation Zrotation
		JOINT LeftLeg
		{
			OFFSET 0.708757 -12.982077 0.567790
			CHANNELS 3 Xrotation Yrotation Zrotation
			JOINT LeftFoot
			{
				OFFSET -0.708756 -10.717838 -2.184338
				CHANNELS 3 Xrotation Yrotation Zrotation
				JOINT LeftToeBase
				{
					OFFSET 0.108149 -7.191104 7.560241
					CHANNELS 3 Xrotation Yrotation Zrotation
					JOINT LeftToe_End
					{
						OFFSET 0.070230 0.081724 4.490308
						CHANNELS 3 Xrotation Yrotation Zrotation
						End Site
						{
							OFFSET 0.000000 0.000000 0.000000
						}
					}
				}
			}
		}
	}
	JOINT RightUpLeg
	{
		OFFSET -10.205400 -3.823500 0.005500
		CHANNELS 3 Xrotation Yrotation Zrotation
		JOINT RightLeg
		{
			OFFSET -0.708756 -12.982134 0.610632
			CHANNELS 3 Xrotation Yrotation Zrotation
			JOINT RightFoot
			{
				OFFSET 0.708754 -10.717769 -1.945823
				CHANNELS 3 Xrotation Yrotation Zrotation
				JOINT RightToeBase
				{
					OFFSET -0.108140 -7.191069 7.372968
					CHANNELS 3 Xrotation Yrotation Zrotation
					JOINT RightToe_End
					{
						OFFSET -0.070227 0.081735 4.479403
						CHANNELS 3 Xrotation Yrotation Zrotation
						End Site
						{
							OFFSET 0.000000 0.000000 0.000000
						}
					}
				}
			}
		}
	}
}
MOTION
Frames: 4
Frame Time: 0.016667
-0.001227 33.491093 -0.886787 2.912696 -29.017738 1.158334 7.836600 -0.331466 -2.654178 1.099251 -0.880579 2.383466 0.000000 0.000000 0.000000 1.108678 -0.590421 2.446364 -3.841827 18.019033 -6.496413 -6.332734 13.021622 0.301451 -0.000000 0.000000 -0.000000 -0.057080 -8.759468 -0.061247 0.000000 0.000000 0.000000 -55.250773 0.329467 -41.449379 11.584343 -65.827348 13.005486 -50.189087 12.353167 4.610199 17.551621 -5.699228 -12.932282 10.850491 26.127762 8.644852 20.927001 51.115865 0.218772 0.000000 0.000000 0.000003 13.980890 1.201510 -55.004371 0.370822 1.161732 -65.441900 1.983970 2.148008 -57.665115 -0.000001 0.000002 0.000000 7.504734 1.174461 -63.778483 1.807822 1.475694 -64.567978 0.130380 -0.912242 -43.272510 -0.000000 -0.000000 0.000001 8.574355 2.179112 -75.148979 -0.207654 1.009268 -57.855063 0.443083 1.742200 -53.581273 -0.000000 -0.000000 0.000002 4.849296 7.760155 5.560468 0.000000 0.000000 0.000000 -0.933499 -2.176880 61.845649 11.299294 18.943463 -3.987609 -0.459226 6.620148 5.830128 15.788518 -2.734463 -17.205890 -2.198324 -31.113564 7.361287 -6.566793 -4.138107 2.407544 0.000001 -0.000002 -0.000000 2.372293 -3.659076 8.487481 -2.147375 -2.473146 18.673303 -1.918346 -4.820984 14.172138 -0.000001 0.000000 -0.000002 -1.976257 -5.707891 13.662374 0.283061 -5.105408 26.988087 -0.657826 -1.220593 16.125940 0.000001 -0.000001 0.000007 -3.263078 -8.563315 11.768990 4.036051 -4.063304 33.263154 2.108307 -3.160512 15.593802 0.000000 0.000000 0.000000 -17.080623 16.724782 17.227482 28.080982 9.553394 -5.133292 -11.721049 -1.483506 -9.416261 -0.188004 0.008237 -0.262344 0.000000 -0.000000 -0.000000 -14.527640 0.511253 -12.879299 22.475639 10.998852 2.298224 -11.779915 -2.097735 8.560274 -1.288102 -0.016763 0.150249 -0.000000 -0.000000 0.000000 
0.016884 33.483555 -0.898206 2.891512 -29.107657 1.163311 7.937032 -0.309635 -2.598035 1.080463 -0.850007 2.358320 0.000000 0.000000 0.000000 1.088646 -0.565120 2.416394 -3.855337 18.005323 -6.571705 -6.317579 12.968642 0.353974 -0.000000 0.000000 0.000000 -0.057073 -8.759449 -0.061240 0.000000 0.000000 0.000000 -55.271445 0.413107 -41.445222 11.503828 -65.871116 12.918184 -50.190310 12.364737 4.610406 17.551616 -5.699227 -12.932280 10.850485 26.127762 8.644856 20.926993 51.115869 0.218780 -0.000002 0.000003 0.000002 13.980888 1.201511 -55.004367 0.370821 1.161732 -65.441900 1.983968 2.148007 -57.665115 0.000001 0.000000 0.000002 7.504734 1.174464 -63.778483 1.807822 1.475693 -64.567978 0.130379 -0.912243 -43.272517 -0.000000 0.000000 -0.000001 8.574353 2.179111 -75.148979 -0.207654 1.009268 -57.855063 0.443081 1.742198 -53.581270 0.000000 -0.000001 0.000001 4.865858 7.713958 5.066085 0.000000 0.000000 0.000000 -1.727486 -3.842163 62.180792 11.300527 19.067264 -3.968899 -0.401670 6.552087 5.647307 15.848964 -2.695766 -17.150612 -2.384714 -31.097523 7.210821 -6.533829 -4.206816 2.475144 -0.000000 -0.000001 0.000003 2.412223 -3.560304 9.283001 -2.102629 -2.491907 20.475838 -1.836422 -4.853175 15.143513 0.000001 0.000001 -0.000003 -1.994713 -5.660132 14.224521 0.416705 -5.085390 28.451566 -0.632281 -1.180528 17.568886 -0.000001 -0.000000 -0.000003 -3.395389 -8.569170 12.124391 4.157484 -3.928405 34.228428 2.165263 -3.122062 16.926244 -0.000001 0.000000 -0.000001 -17.089579 16.729322 17.190336 28.189118 9.567412 -5.112660 -11.789748 -1.415243 -9.414799 -0.186205 0.008225 -0.264426 0.000000 -0.000000 0.000000 -14.664023 0.561608 -12.932959 22.598099 10.992025 2.326183 -11.755958 -2.001648 8.585671 -1.288117 -0.016737 0.150255 0.000000 0.000002 -0.000000 
0.037247 33.471664 -0.910893 2.891861 -29.225314 1.194498 8.055244 -0.287604 -2.541949 1.045026 -0.814357 2.320275 0.000000 0.000000 0.000000 1.051746 -0.537266 2.372767 -3.859433 18.003603 -6.653442 -6.291794 12.928297 0.401020 -0.000000 0.000000 0.000000 -0.056881 -8.756174 -0.061019 0.000000 0.000000 0.000000 -55.279091 0.492954 -41.432204 11.415630 -65.915779 12.820464 -50.192536 12.364405 4.627896 17.551612 -5.699234 -12.932283 10.850485 26.127763 8.644857 20.927003 51.115865 0.218781 -0.000001 0.000002 0.000003 13.980887 1.201510 -55.004367 0.370822 1.161731 -65.441900 1.983969 2.148006 -57.665122 0.000000 -0.000001 0.000000 7.504731 1.174462 -63.778483 1.807823 1.475694 -64.567978 0.130380 -0.912240 -43.272517 -0.000000 0.000000 0.000000 8.574351 2.179113 -75.148979 -0.207655 1.009268 -57.855063 0.443082 1.742199 -53.581270 -0.000001 0.000001 -0.000003 4.899522 7.770211 4.883291 0.000000 0.000000 0.000000 -2.486726 -5.619527 62.291776 11.240948 19.305419 -3.821087 -0.295086 6.502936 5.287242 15.913509 -2.655471 -17.091828 -2.582652 -31.081281 7.049778 -6.498499 -4.276769 2.548383 0.000000 -0.000000 -0.000000 2.451989 -3.455401 10.124573 -2.056507 -2.510908 22.383107 -1.749159 -4.885696 16.171467 0.000001 0.000001 0.000000 -2.015443 -5.610605 14.819356 0.556758 -5.060610 29.999874 -0.607982 -1.137313 19.095561 0.000000 0.000000 -0.000000 -3.535408 -8.575343 12.500585 4.281589 -3.782343 35.249213 2.224748 -3.080034 18.336044 0.000001 0.000000 -0.000002 -17.120668 16.738630 17.121358 28.319810 9.512509 -5.072123 -11.878245 -1.245446 -9.400315 -0.182959 0.008222 -0.268173 0.000000 0.000000 -0.000000 -14.884130 0.654937 -13.023691 22.826349 10.833741 2.365242 -11.763854 -1.741887 8.652522 -1.288113 -0.016756 0.150251 0.000000 -0.000001 -0.000000 
0.062015 33.453392 -0.925306 2.912459 -29.390536 1.259918 8.215606 -0.261055 -2.473576 0.982373 -0.769364 2.257493 0.000000 0.000000 0.000000 0.987260 -0.504670 2.302935 -3.858821 18.023138 -6.759834 -6.253558 12.897460 0.461516 0.000000 -0.000000 0.000000 -0.053854 -8.693461 -0.060976 0.000000 0.000000 0.000000 -55.250397 0.554222 -41.417488 11.247197 -65.966274 12.636372 -50.201467 12.368780 4.700085 17.551617 -5.699228 -12.932282 10.850486 26.127760 8.644855 20.927000 51.115859 0.218764 0.000001 0.000002 0.000003 13.980889 1.201511 -55.004367 0.370824 1.161731 -65.441900 1.983969 2.148007 -57.665115 -0.000000 0.000000 -0.000001 7.504734 1.174464 -63.778483 1.807822 1.475692 -64.567978 0.130379 -0.912241 -43.272513 -0.000000 -0.000001 0.000001 8.574353 2.179113 -75.148979 -0.207656 1.009267 -57.855063 0.443082 1.742199 -53.581270 -0.000000 -0.000001 -0.000001 4.923742 7.918121 4.671068 0.000000 0.000000 0.000000 -3.132925 -7.632027 62.463801 11.059127 19.707852 -3.492749 -0.105827 6.503901 4.622651 15.981666 -2.613719 -17.029921 -2.790802 -31.064684 6.879380 -6.461032 -4.347844 2.626714 0.000003 -0.000004 0.000001 2.490957 -3.344922 11.007146 -2.009440 -2.530177 24.383594 -1.657005 -4.918120 17.249711 0.000000 -0.000000 0.000004 -2.038536 -5.559737 15.443203 0.702052 -5.030698 31.623776 -0.585481 -1.091326 20.696745 -0.000001 -0.000000 -0.000001 -3.682334 -8.586001 12.895180 4.407018 -3.625680 36.319125 2.286210 -3.034590 19.814596 0.000000 -0.000000 -0.000002 -17.166422 16.760130 17.000486 28.491475 9.434474 -4.982785 -12.003958 -0.990644 -9.403506 -0.179097 0.008207 -0.272614 0.000000 0.000000 -0.000000 -15.221760 0.796969 -13.165495 23.197752 10.571865 2.423123 -11.811864 -1.337577 8.749722 -1.288098 -0.016754 0.150256 -0.000000 0.000002 0.000000 
